# xmcd
#
# Track frame offsets: 
#        150
#        13344
#        23123
#        36918
#        49306
#        61271
#        74600
#        86242
#        96526
#        108752
#        122075
#        129779
#        145065
#        158012
#        172642
#
# Disc length: 2490 seconds
#
# Revision: 0
# Processed by: cddbd v1.5.2PL0 Copyright (c) Steve Scherf et al.
# Submitted via: ExactAudioCopy v0.95b4
#
DISCID=c809b80f
DTITLE=Various Artist - Country Legends - Wasted Days And Wasted Nigths
DYEAR=2005
DGENRE=Country
TTITLE0=Freddy Fender/Wasted Days And Wasted Nigths
TTITLE1=Don Williams and Poco Seco Singers/Take My Hand For A While
TTITLE2=Patsy Cline/A Church A Courtroom And then goodbye
TTITLE3=Leroy Van Dyke/The Auctioneer
TTITLE4=Jimmie C. Newman/Teardrops In My Heart
TTITLE5=Kitty Wells/I Don't claim To Be An Angel
TTITLE6=Hank Williams/A Mansion On The Hill
TTITLE7=Hank Lockin/Let Me Be The One
TTITLE8=Red Foley/Tennessee Border
TTITLE9=Kenny Rogers and The First Edition/Shine On Ruby Montain
TTITLE10=Jim Reeves/Oklahoma Hills
TTITLE11=Tina Turner/If This Is Our Last Times
TTITLE12=Freddy Fender/Only One
TTITLE13=Lynn Anderson/Gone At Last
TTITLE14=Razzy Bailey/She's Anybody's Darling
EXTD=
EXTT0=
EXTT1=
EXTT2=
EXTT3=
EXTT4=
EXTT5=
EXTT6=
EXTT7=
EXTT8=
EXTT9=
EXTT10=
EXTT11=
EXTT12=
EXTT13=
EXTT14=
PLAYORDER=
